<?xml version="1.0"?>
<svg width="24" height="24" xmlns="http://www.w3.org/2000/svg" xmlns:svg="http://www.w3.org/2000/svg" class="style-scope yt-icon" display="block" preserveAspectRatio="xMidYMid meet">
 <g class="layer">
  <title>Layer 1</title>
  <g class="style-scope yt-icon" id="svg_1">
   <path class="style-scope yt-icon" d="m10,20l4,0c0,1.1 -0.9,2 -2,2s-2,-0.9 -2,-2zm10,-2.65l0,1.65l-16,0l0,-1.65l2,-1.88l0,-5.15c0,-2.92 1.56,-5.22 4,-5.98l0,-0.38c0,-1.42 1.49,-2.5 2.99,-1.76c0.65,0.32 1.01,1.03 1.01,1.76l0,0.39c2.44,0.75 4,3.06 4,5.98l0,5.15l2,1.87zm-1,0.42l-2,-1.88l0,-5.47c0,-2.47 -1.19,-4.36 -3.13,-5.1c-1.26,-0.53 -2.64,-0.5 -3.84,0.03c-1.88,0.76 -3.03,2.64 -3.03,5.07l0,5.47l-2,1.88l0,0.23l14,0l0,-0.23z" fill="#ffffff" id="svg_2" stroke="#ffffff"/>
  </g>
 </g>
</svg>