<?xml version="1.0"?>
<svg width="24" height="24" xmlns="http://www.w3.org/2000/svg" xmlns:svg="http://www.w3.org/2000/svg" class="style-scope yt-icon" display="block" preserveAspectRatio="xMidYMid meet">
 <g class="layer">
  <title>Layer 1</title>
  <g class="style-scope yt-icon" id="svg_1">
   <path class="style-scope yt-icon" d="m14,13l-3,0l0,3l-2,0l0,-3l-3,0l0,-2l3,0l0,-3l2,0l0,3l3,0l0,2zm3,-7l-14,0l0,12l14,0l0,-6.39l4,1.83l0,-4.88l-4,1.83l0,-4.39m1,-1l0,3.83l4,-1.83l0,8l-4,-1.83l0,5.83l-16,0l0,-14l16,0l0,0z" fill="#ffffff" id="svg_2" stroke="#ffffff"/>
  </g>
 </g>
</svg>