<svg xmlns="http://www.w3.org/2000/svg" xmlns:xlink="http://www.w3.org/1999/xlink" viewBox="0,0,256,256" width="100px" height="100px"><g fill="#ffffff" fill-rule="nonzero" stroke="none" stroke-width="1" stroke-linecap="butt" stroke-linejoin="miter" stroke-miterlimit="10" stroke-dasharray="" stroke-dashoffset="0" font-family="none" font-weight="none" font-size="none" text-anchor="none" style="mix-blend-mode: normal"><g transform="scale(5.12,5.12)"><path d="M25,3.04492c-12.11385,0 -21.95508,9.84123 -21.95508,21.95508c0,12.11385 9.84123,21.95508 21.95508,21.95508c12.11385,0 21.95508,-9.84123 21.95508,-21.95508c0,-12.11385 -9.84123,-21.95508 -21.95508,-21.95508zM25,4.95508c11.08215,0 20.04492,8.96277 20.04492,20.04492c0,11.08215 -8.96277,20.04492 -20.04492,20.04492c-11.08215,0 -20.04492,-8.96277 -20.04492,-20.04492c0,-11.08215 8.96277,-20.04492 20.04492,-20.04492zM25,11c-7.72039,0 -14,6.27961 -14,14c0,7.72039 6.27961,14 14,14c7.72039,0 14,-6.27961 14,-14c0,-7.72039 -6.27961,-14 -14,-14zM25,13c6.63961,0 12,5.36039 12,12c0,6.63961 -5.36039,12 -12,12c-6.63961,0 -12,-5.36039 -12,-12c0,-6.63961 5.36039,-12 12,-12zM21.0332,17.5c-0.27091,-0.00897 -0.53387,0.09241 -0.72864,0.28092c-0.19477,0.18851 -0.30469,0.44802 -0.30456,0.71908v13c0.00011,0.35883 0.19246,0.6901 0.50403,0.86808c0.31158,0.17799 0.69463,0.17541 1.00378,-0.00676l11,-6.5c0.3048,-0.17986 0.49185,-0.50742 0.49185,-0.86133c0,-0.35391 -0.18705,-0.68147 -0.49185,-0.86133l-11,-6.5c-0.1441,-0.08522 -0.30729,-0.1329 -0.47461,-0.13867zM22,20.25195l8.03516,4.74805l-8.03516,4.74805z"></path></g></g></svg>